<svg width="495" height="144" viewBox="0 0 495 144" xmlns="http://www.w3.org/2000/svg" role="img" aria-label="Top Languages">
  <title>Top Languages</title>
  <defs><clipPath id="lc-clip"><rect x="25" y="42" width="445" height="10" rx="5"/></clipPath></defs>
  <style>
    .lc-title { font: 600 14px 'Segoe UI', Ubuntu, sans-serif; fill: #00d4ff; }
    .lc-name  { font: 400 11px 'Segoe UI', Ubuntu, sans-serif; fill: #eaeaea; }
    .lc-pct   { font: 600 11px 'Segoe UI', Ubuntu, sans-serif; fill: #eaeaea; opacity: 0.7; }
  </style>
  <rect x="0.5" y="0.5" rx="4.5" ry="4.5" width="494" height="143" fill="#020024" stroke="#090979" stroke-width="1"/>
  <text x="25" y="26" class="lc-title">Top Languages</text>
  <g clip-path="url(#lc-clip)"><rect x="25" y="42" width="201" height="10" fill="#3572A5"/><rect x="226" y="42" width="127" height="10" fill="#3178c6"/><rect x="353" y="42" width="49" height="10" fill="#e34c26"/><rect x="402" y="42" width="28" height="10" fill="#178600"/><rect x="430" y="42" width="19" height="10" fill="#f1e05a"/><rect x="449" y="42" width="10" height="10" fill="#b07219"/><rect x="459" y="42" width="10" height="10" fill="#663399"/><rect x="469" y="42" width="2" height="10" fill="#89e051"/></g>
  <circle cx="31" cy="73" r="4" fill="#3572A5"/>
  <text x="39" y="77" class="lc-name">Python</text>
  <text x="171" y="77" class="lc-pct" text-anchor="end">45.2%</text>
  <circle cx="179" cy="73" r="4" fill="#3178c6"/>
  <text x="187" y="77" class="lc-name">TypeScript</text>
  <text x="319" y="77" class="lc-pct" text-anchor="end">28.6%</text>
  <circle cx="327" cy="73" r="4" fill="#e34c26"/>
  <text x="335" y="77" class="lc-name">HTML</text>
  <text x="467" y="77" class="lc-pct" text-anchor="end">10.9%</text>
  <circle cx="31" cy="93" r="4" fill="#178600"/>
  <text x="39" y="97" class="lc-name">C#</text>
  <text x="171" y="97" class="lc-pct" text-anchor="end">6.4%</text>
  <circle cx="179" cy="93" r="4" fill="#f1e05a"/>
  <text x="187" y="97" class="lc-name">JavaScript</text>
  <text x="319" y="97" class="lc-pct" text-anchor="end">4.4%</text>
  <circle cx="327" cy="93" r="4" fill="#b07219"/>
  <text x="335" y="97" class="lc-name">Java</text>
  <text x="467" y="97" class="lc-pct" text-anchor="end">2.2%</text>
  <circle cx="31" cy="113" r="4" fill="#663399"/>
  <text x="39" y="117" class="lc-name">CSS</text>
  <text x="171" y="117" class="lc-pct" text-anchor="end">2.2%</text>
  <circle cx="179" cy="113" r="4" fill="#89e051"/>
  <text x="187" y="117" class="lc-name">Shell</text>
  <text x="319" y="117" class="lc-pct" text-anchor="end">0.1%</text>
</svg>